<svg xmlns="http://www.w3.org/2000/svg" width="47.5" height="37.507" viewBox="0 0 47.5 37.507">
  <g id="Group_43" data-name="Group 43" transform="translate(-1260 -38.803)">
    <path id="Icon_awesome-cloud-sun" data-name="Icon awesome-cloud-sun" d="M40.444,22.9a3.791,3.791,0,0,0,.056-.394,4.486,4.486,0,0,0-6.9-3.8,7.866,7.866,0,0,0-15.04,3.234c0,.211.049.408.063.612a6.734,6.734,0,0,0,.5,13.451H38.25A6.734,6.734,0,0,0,40.444,22.9ZM10.181,21.312A7.873,7.873,0,1,1,22.887,12.48a10.09,10.09,0,0,1,2.159-.527l2.1-6.251a1.066,1.066,0,0,0-1.35-1.35l-6.173,2.06L16.7.591a1.064,1.064,0,0,0-1.905,0L11.883,6.412,5.7,4.352A1.071,1.071,0,0,0,4.352,5.7l2.06,6.173L.591,14.794a1.064,1.064,0,0,0,0,1.905L6.412,19.61l-2.06,6.173a1.066,1.066,0,0,0,1.35,1.35l5.351-1.779A9.087,9.087,0,0,1,12.713,23a7.753,7.753,0,0,1-2.531-1.687Zm-.337-5.569a5.907,5.907,0,0,0,4.774,5.787,9.02,9.02,0,0,1,1.772-.823,10.135,10.135,0,0,1,4.739-7.383A5.9,5.9,0,0,0,9.844,15.743Z" transform="translate(1260 40.303)" fill="#fff"/>
    <path id="Icon_awesome-cloud-sun-2" data-name="Icon awesome-cloud-sun" d="M40.444,22.9a3.791,3.791,0,0,0,.056-.394,4.486,4.486,0,0,0-6.9-3.8,7.866,7.866,0,0,0-15.04,3.234c0,.211.049.408.063.612a6.734,6.734,0,0,0,.5,13.451H38.25A6.734,6.734,0,0,0,40.444,22.9ZM10.181,21.312A7.873,7.873,0,1,1,22.887,12.48a10.09,10.09,0,0,1,2.159-.527l2.1-6.251a1.066,1.066,0,0,0-1.35-1.35l-6.173,2.06L16.7.591a1.064,1.064,0,0,0-1.905,0L11.883,6.412,5.7,4.352A1.071,1.071,0,0,0,4.352,5.7l2.06,6.173L.591,14.794a1.064,1.064,0,0,0,0,1.905L6.412,19.61l-2.06,6.173a1.066,1.066,0,0,0,1.35,1.35l5.351-1.779A9.087,9.087,0,0,1,12.713,23a7.753,7.753,0,0,1-2.531-1.687Zm-.337-5.569a5.907,5.907,0,0,0,4.774,5.787,9.02,9.02,0,0,1,1.772-.823,10.135,10.135,0,0,1,4.739-7.383A5.9,5.9,0,0,0,9.844,15.743Z" transform="translate(1262 39.303)" fill="none" stroke="#fff" stroke-width="1"/>
  </g>
</svg>
